<?xml version="1.0" encoding="UTF-8"?>
<svg xmlns="http://www.w3.org/2000/svg" version="1.1" width="400" height="400" viewBox="0 0 400 400"><rect x="0" y="0" width="400" height="400" fill="#ffffff"/><g transform="scale(7.843)"><g transform="translate(15,15)"><path fill-rule="evenodd" d="M8 1L8 7L9 7L9 5L10 5L10 7L11 7L11 8L10 8L10 9L9 9L9 8L5 8L5 9L3 9L3 8L2 8L2 9L0 9L0 11L1 11L1 13L3 13L3 11L4 11L4 12L6 12L6 13L7 13L7 12L9 12L9 11L7 11L7 10L10 10L10 11L12 11L12 10L13 10L13 12L14 12L14 13L17 13L17 12L18 12L18 11L17 11L17 10L16 10L16 9L19 9L19 11L20 11L20 13L19 13L19 14L17 14L17 15L16 15L16 16L17 16L17 18L16 18L16 17L15 17L15 20L14 20L14 16L15 16L15 15L14 15L14 16L13 16L13 18L12 18L12 16L9 16L9 13L8 13L8 16L9 16L9 18L8 18L8 19L10 19L10 20L14 20L14 21L21 21L21 20L20 20L20 19L21 19L21 18L19 18L19 17L21 17L21 16L20 16L20 13L21 13L21 11L20 11L20 8L15 8L15 11L14 11L14 10L13 10L13 9L14 9L14 8L12 8L12 7L13 7L13 6L12 6L12 7L11 7L11 5L13 5L13 1L11 1L11 3L10 3L10 4L9 4L9 2L10 2L10 1ZM11 3L11 4L12 4L12 3ZM2 9L2 10L3 10L3 9ZM6 9L6 10L7 10L7 9ZM10 9L10 10L12 10L12 9ZM4 10L4 11L5 11L5 10ZM6 11L6 12L7 12L7 11ZM16 11L16 12L17 12L17 11ZM10 12L10 15L12 15L12 14L13 14L13 13L11 13L11 12ZM17 15L17 16L19 16L19 15ZM10 17L10 18L11 18L11 19L12 19L12 18L11 18L11 17ZM18 18L18 19L19 19L19 18ZM16 19L16 20L17 20L17 19ZM0 0L0 7L7 7L7 0ZM1 1L1 6L6 6L6 1ZM2 2L2 5L5 5L5 2ZM14 0L14 7L21 7L21 0ZM15 1L15 6L20 6L20 1ZM16 2L16 5L19 5L19 2ZM0 14L0 21L7 21L7 14ZM1 15L1 20L6 20L6 15ZM2 16L2 19L5 19L5 16Z" fill="#004b96"/></g></g></svg>
