<?xml version="1.0" encoding="UTF-8"?>
<svg xmlns="http://www.w3.org/2000/svg" version="1.1" width="400" height="400" viewBox="0 0 400 400"><rect x="0" y="0" width="400" height="400" fill="#ffffff"/><g transform="scale(14.815)"><g transform="translate(3,3)"><path fill-rule="evenodd" d="M11 0L11 1L12 1L12 0ZM8 1L8 2L9 2L9 1ZM10 2L10 3L9 3L9 5L8 5L8 8L4 8L4 10L5 10L5 11L3 11L3 9L1 9L1 10L0 10L0 11L1 11L1 12L0 12L0 13L1 13L1 12L3 12L3 13L7 13L7 12L8 12L8 17L9 17L9 19L10 19L10 20L12 20L12 18L13 18L13 17L12 17L12 18L10 18L10 17L11 17L11 16L10 16L10 14L9 14L9 13L10 13L10 12L11 12L11 15L12 15L12 13L13 13L13 14L15 14L15 11L16 11L16 12L17 12L17 13L18 13L18 14L17 14L17 16L16 16L16 15L15 15L15 19L13 19L13 20L14 20L14 21L15 21L15 19L16 19L16 20L17 20L17 19L18 19L18 21L21 21L21 20L20 20L20 19L19 19L19 18L21 18L21 16L20 16L20 15L21 15L21 12L19 12L19 13L18 13L18 11L17 11L17 10L20 10L20 11L21 11L21 10L20 10L20 8L19 8L19 9L17 9L17 10L16 10L16 8L14 8L14 9L15 9L15 10L13 10L13 9L12 9L12 8L13 8L13 4L12 4L12 3L13 3L13 2ZM10 3L10 4L11 4L11 5L9 5L9 8L8 8L8 12L10 12L10 11L11 11L11 12L12 12L12 11L13 11L13 13L14 13L14 11L13 11L13 10L9 10L9 9L11 9L11 8L12 8L12 6L11 6L11 5L12 5L12 4L11 4L11 3ZM10 6L10 7L11 7L11 6ZM5 9L5 10L7 10L7 9ZM1 10L1 11L2 11L2 10ZM5 11L5 12L7 12L7 11ZM19 13L19 14L18 14L18 16L17 16L17 17L16 17L16 18L17 18L17 17L18 17L18 18L19 18L19 17L18 17L18 16L19 16L19 15L20 15L20 13ZM13 15L13 16L14 16L14 15ZM9 16L9 17L10 17L10 16ZM0 0L0 7L7 7L7 0ZM1 1L1 6L6 6L6 1ZM2 2L2 5L5 5L5 2ZM14 0L14 7L21 7L21 0ZM15 1L15 6L20 6L20 1ZM16 2L16 5L19 5L19 2ZM0 14L0 21L7 21L7 14ZM1 15L1 20L6 20L6 15ZM2 16L2 19L5 19L5 16Z" fill="#004b96"/></g></g></svg>
