<?xml version="1.0" encoding="UTF-8"?>
<svg xmlns="http://www.w3.org/2000/svg" version="1.1" width="400" height="400" viewBox="0 0 400 400"><rect x="0" y="0" width="400" height="400" fill="#f5f5f5"/><g transform="scale(7.843)"><g transform="translate(15,15)"><path fill-rule="evenodd" d="M8 0L8 1L9 1L9 0ZM10 0L10 1L11 1L11 4L10 4L10 3L8 3L8 4L9 4L9 6L8 6L8 7L9 7L9 8L8 8L8 9L10 9L10 10L8 10L8 11L7 11L7 10L6 10L6 11L4 11L4 12L3 12L3 10L4 10L4 9L7 9L7 8L4 8L4 9L3 9L3 8L2 8L2 9L3 9L3 10L0 10L0 11L1 11L1 12L0 12L0 13L1 13L1 12L3 12L3 13L7 13L7 12L8 12L8 14L9 14L9 13L11 13L11 14L10 14L10 15L8 15L8 17L9 17L9 18L8 18L8 19L9 19L9 21L11 21L11 20L10 20L10 19L9 19L9 18L11 18L11 16L12 16L12 15L13 15L13 14L15 14L15 17L13 17L13 18L12 18L12 20L13 20L13 21L15 21L15 20L14 20L14 19L15 19L15 17L16 17L16 16L18 16L18 18L20 18L20 19L21 19L21 18L20 18L20 17L21 17L21 16L20 16L20 17L19 17L19 16L18 16L18 15L19 15L19 14L20 14L20 12L21 12L21 11L20 11L20 10L21 10L21 8L20 8L20 10L19 10L19 9L18 9L18 8L17 8L17 10L16 10L16 11L17 11L17 12L16 12L16 13L15 13L15 12L14 12L14 10L15 10L15 9L14 9L14 8L13 8L13 5L11 5L11 4L13 4L13 3L12 3L12 2L13 2L13 0ZM10 5L10 6L9 6L9 7L10 7L10 6L11 6L11 11L12 11L12 9L13 9L13 8L12 8L12 6L11 6L11 5ZM6 11L6 12L7 12L7 11ZM8 11L8 12L10 12L10 11ZM18 11L18 13L16 13L16 15L18 15L18 13L19 13L19 12L20 12L20 11ZM11 12L11 13L12 13L12 14L11 14L11 15L12 15L12 14L13 14L13 12ZM13 18L13 19L14 19L14 18ZM16 18L16 19L17 19L17 18ZM18 19L18 21L19 21L19 19ZM16 20L16 21L17 21L17 20ZM20 20L20 21L21 21L21 20ZM0 0L0 7L7 7L7 0ZM1 1L1 6L6 6L6 1ZM2 2L2 5L5 5L5 2ZM14 0L14 7L21 7L21 0ZM15 1L15 6L20 6L20 1ZM16 2L16 5L19 5L19 2ZM0 14L0 21L7 21L7 14ZM1 15L1 20L6 20L6 15ZM2 16L2 19L5 19L5 16Z" fill="#282828"/></g></g></svg>
