<?xml version="1.0" encoding="UTF-8"?>
<svg xmlns="http://www.w3.org/2000/svg" version="1.1" width="400" height="400" viewBox="0 0 400 400"><rect x="0" y="0" width="400" height="400" fill="#f5f5f5"/><g transform="scale(14.815)"><g transform="translate(3,3)"><path fill-rule="evenodd" d="M9 0L9 1L8 1L8 2L9 2L9 1L12 1L12 0ZM10 2L10 3L9 3L9 4L10 4L10 5L8 5L8 8L4 8L4 9L2 9L2 11L3 11L3 10L4 10L4 12L2 12L2 13L7 13L7 12L8 12L8 11L7 11L7 10L4 10L4 9L8 9L8 8L9 8L9 12L10 12L10 13L8 13L8 17L9 17L9 18L10 18L10 19L9 19L9 21L10 21L10 19L11 19L11 21L13 21L13 20L14 20L14 21L15 21L15 19L16 19L16 20L17 20L17 19L18 19L18 21L21 21L21 20L20 20L20 19L19 19L19 18L21 18L21 16L20 16L20 15L21 15L21 14L20 14L20 15L19 15L19 16L18 16L18 13L17 13L17 16L16 16L16 15L15 15L15 14L14 14L14 16L13 16L13 13L14 13L14 12L15 12L15 11L16 11L16 12L19 12L19 13L21 13L21 12L19 12L19 11L20 11L20 10L21 10L21 9L20 9L20 8L19 8L19 9L17 9L17 10L16 10L16 8L14 8L14 9L13 9L13 6L12 6L12 5L13 5L13 3L11 3L11 2ZM10 5L10 6L9 6L9 7L10 7L10 8L11 8L11 9L10 9L10 11L11 11L11 14L10 14L10 15L11 15L11 16L10 16L10 18L11 18L11 19L13 19L13 18L14 18L14 19L15 19L15 16L14 16L14 17L13 17L13 18L12 18L12 11L15 11L15 10L13 10L13 9L12 9L12 6L11 6L11 5ZM10 6L10 7L11 7L11 6ZM0 9L0 10L1 10L1 9ZM11 9L11 11L12 11L12 9ZM19 9L19 10L18 10L18 11L19 11L19 10L20 10L20 9ZM5 11L5 12L7 12L7 11ZM17 16L17 17L16 17L16 18L17 18L17 17L18 17L18 18L19 18L19 17L18 17L18 16ZM0 0L0 7L7 7L7 0ZM1 1L1 6L6 6L6 1ZM2 2L2 5L5 5L5 2ZM14 0L14 7L21 7L21 0ZM15 1L15 6L20 6L20 1ZM16 2L16 5L19 5L19 2ZM0 14L0 21L7 21L7 14ZM1 15L1 20L6 20L6 15ZM2 16L2 19L5 19L5 16Z" fill="#282828"/></g></g></svg>
