<?xml version="1.0" encoding="UTF-8"?>
<svg xmlns="http://www.w3.org/2000/svg" version="1.1" width="400" height="400" viewBox="0 0 400 400"><rect x="0" y="0" width="400" height="400" fill="#f5f5f5"/><g transform="scale(14.815)"><g transform="translate(3,3)"><path fill-rule="evenodd" d="M8 0L8 3L10 3L10 4L9 4L9 5L8 5L8 9L7 9L7 8L6 8L6 9L7 9L7 10L2 10L2 9L5 9L5 8L2 8L2 9L1 9L1 10L0 10L0 12L1 12L1 11L2 11L2 12L3 12L3 13L5 13L5 12L6 12L6 13L7 13L7 12L8 12L8 14L9 14L9 15L10 15L10 16L8 16L8 19L9 19L9 21L10 21L10 20L13 20L13 21L16 21L16 20L15 20L15 19L16 19L16 18L15 18L15 19L12 19L12 18L11 18L11 17L12 17L12 15L11 15L11 14L9 14L9 12L10 12L10 13L12 13L12 12L10 12L10 9L11 9L11 11L13 11L13 10L14 10L14 9L16 9L16 8L13 8L13 10L12 10L12 9L11 9L11 8L12 8L12 7L13 7L13 3L12 3L12 4L11 4L11 2L10 2L10 1L9 1L9 0ZM11 0L11 1L13 1L13 0ZM9 5L9 7L10 7L10 8L9 8L9 9L10 9L10 8L11 8L11 7L12 7L12 6L11 6L11 5ZM10 6L10 7L11 7L11 6ZM18 8L18 9L17 9L17 10L19 10L19 11L20 11L20 9L21 9L21 8ZM7 10L7 11L6 11L6 12L7 12L7 11L8 11L8 12L9 12L9 11L8 11L8 10ZM15 10L15 11L16 11L16 10ZM4 11L4 12L5 12L5 11ZM14 12L14 13L13 13L13 14L14 14L14 13L15 13L15 14L16 14L16 15L13 15L13 18L14 18L14 16L16 16L16 17L17 17L17 18L18 18L18 17L19 17L19 16L20 16L20 15L21 15L21 12L19 12L19 14L18 14L18 12L17 12L17 14L16 14L16 12ZM17 14L17 17L18 17L18 14ZM19 14L19 15L20 15L20 14ZM10 16L10 17L9 17L9 19L11 19L11 18L10 18L10 17L11 17L11 16ZM17 19L17 20L18 20L18 21L19 21L19 20L20 20L20 19L19 19L19 20L18 20L18 19ZM0 0L0 7L7 7L7 0ZM1 1L1 6L6 6L6 1ZM2 2L2 5L5 5L5 2ZM14 0L14 7L21 7L21 0ZM15 1L15 6L20 6L20 1ZM16 2L16 5L19 5L19 2ZM0 14L0 21L7 21L7 14ZM1 15L1 20L6 20L6 15ZM2 16L2 19L5 19L5 16Z" fill="#282828"/></g></g></svg>
