<?xml version="1.0" encoding="UTF-8"?>
<svg xmlns="http://www.w3.org/2000/svg" version="1.1" width="400" height="400" viewBox="0 0 400 400"><rect x="0" y="0" width="400" height="400" fill="#f5f5f5"/><g transform="scale(14.815)"><g transform="translate(3,3)"><path fill-rule="evenodd" d="M8 1L8 7L9 7L9 8L5 8L5 9L3 9L3 8L2 8L2 9L1 9L1 10L2 10L2 11L0 11L0 13L1 13L1 12L2 12L2 13L3 13L3 12L2 12L2 11L5 11L5 9L8 9L8 11L10 11L10 14L13 14L13 15L12 15L12 16L13 16L13 17L12 17L12 19L11 19L11 18L10 18L10 17L11 17L11 15L10 15L10 17L9 17L9 18L8 18L8 19L9 19L9 21L10 21L10 19L11 19L11 21L12 21L12 19L13 19L13 18L14 18L14 20L13 20L13 21L21 21L21 20L20 20L20 19L21 19L21 18L19 18L19 17L21 17L21 16L20 16L20 14L21 14L21 13L20 13L20 11L21 11L21 10L20 10L20 8L15 8L15 11L14 11L14 8L13 8L13 6L12 6L12 4L13 4L13 1L12 1L12 2L9 2L9 1ZM9 3L9 5L10 5L10 3ZM9 6L9 7L10 7L10 6ZM11 6L11 8L12 8L12 9L11 9L11 12L13 12L13 8L12 8L12 6ZM9 8L9 9L10 9L10 8ZM2 9L2 10L3 10L3 9ZM16 9L16 10L17 10L17 11L16 11L16 12L17 12L17 13L15 13L15 12L14 12L14 16L15 16L15 17L16 17L16 18L17 18L17 16L19 16L19 15L17 15L17 13L18 13L18 14L19 14L19 11L18 11L18 10L17 10L17 9ZM6 10L6 11L7 11L7 10ZM4 12L4 13L8 13L8 16L9 16L9 12ZM16 15L16 16L17 16L17 15ZM9 18L9 19L10 19L10 18ZM18 18L18 19L19 19L19 18ZM16 19L16 20L17 20L17 19ZM0 0L0 7L7 7L7 0ZM1 1L1 6L6 6L6 1ZM2 2L2 5L5 5L5 2ZM14 0L14 7L21 7L21 0ZM15 1L15 6L20 6L20 1ZM16 2L16 5L19 5L19 2ZM0 14L0 21L7 21L7 14ZM1 15L1 20L6 20L6 15ZM2 16L2 19L5 19L5 16Z" fill="#282828"/></g></g></svg>
