<?xml version="1.0" encoding="UTF-8"?>
<svg xmlns="http://www.w3.org/2000/svg" version="1.1" width="400" height="400" viewBox="0 0 400 400"><rect x="0" y="0" width="400" height="400" fill="#f5f5f5"/><g transform="scale(14.815)"><g transform="translate(3,3)"><path fill-rule="evenodd" d="M8 0L8 1L9 1L9 3L8 3L8 4L9 4L9 3L10 3L10 5L9 5L9 6L8 6L8 7L9 7L9 8L8 8L8 9L9 9L9 10L8 10L8 14L9 14L9 15L8 15L8 17L9 17L9 18L8 18L8 19L10 19L10 21L12 21L12 20L13 20L13 21L15 21L15 20L13 20L13 18L12 18L12 20L11 20L11 16L10 16L10 17L9 17L9 15L10 15L10 12L11 12L11 11L12 11L12 13L11 13L11 15L12 15L12 13L13 13L13 16L14 16L14 19L15 19L15 17L16 17L16 16L18 16L18 18L20 18L20 19L21 19L21 18L20 18L20 17L21 17L21 16L20 16L20 17L19 17L19 16L18 16L18 15L19 15L19 14L21 14L21 13L19 13L19 14L18 14L18 13L17 13L17 12L16 12L16 13L15 13L15 10L13 10L13 11L12 11L12 10L10 10L10 9L11 9L11 8L12 8L12 9L14 9L14 8L12 8L12 7L13 7L13 5L12 5L12 2L13 2L13 0L12 0L12 1L10 1L10 0ZM10 2L10 3L11 3L11 2ZM10 5L10 6L9 6L9 7L10 7L10 6L11 6L11 7L12 7L12 6L11 6L11 5ZM2 8L2 9L3 9L3 10L2 10L2 11L4 11L4 9L5 9L5 10L6 10L6 11L5 11L5 12L2 12L2 13L5 13L5 12L6 12L6 13L7 13L7 12L6 12L6 11L7 11L7 10L6 10L6 9L7 9L7 8L4 8L4 9L3 9L3 8ZM9 8L9 9L10 9L10 8ZM17 8L17 10L16 10L16 11L18 11L18 12L20 12L20 11L21 11L21 8L20 8L20 10L19 10L19 9L18 9L18 8ZM0 10L0 13L1 13L1 10ZM18 10L18 11L19 11L19 10ZM9 11L9 12L10 12L10 11ZM13 12L13 13L14 13L14 12ZM16 13L16 15L18 15L18 14L17 14L17 13ZM16 18L16 19L17 19L17 18ZM18 19L18 21L19 21L19 19ZM16 20L16 21L17 21L17 20ZM20 20L20 21L21 21L21 20ZM0 0L0 7L7 7L7 0ZM1 1L1 6L6 6L6 1ZM2 2L2 5L5 5L5 2ZM14 0L14 7L21 7L21 0ZM15 1L15 6L20 6L20 1ZM16 2L16 5L19 5L19 2ZM0 14L0 21L7 21L7 14ZM1 15L1 20L6 20L6 15ZM2 16L2 19L5 19L5 16Z" fill="#282828"/></g></g></svg>
