<?xml version="1.0" encoding="UTF-8"?>
<svg xmlns="http://www.w3.org/2000/svg" version="1.1" width="400" height="400" viewBox="0 0 400 400"><rect x="0" y="0" width="400" height="400" fill="#ffffff"/><g transform="scale(7.843)"><g transform="translate(15,15)"><path fill-rule="evenodd" d="M12 0L12 1L11 1L11 2L10 2L10 7L9 7L9 1L8 1L8 7L9 7L9 8L5 8L5 9L7 9L7 10L4 10L4 9L3 9L3 8L2 8L2 9L1 9L1 10L0 10L0 11L2 11L2 9L3 9L3 12L2 12L2 13L3 13L3 12L5 12L5 13L8 13L8 16L9 16L9 15L10 15L10 18L8 18L8 19L10 19L10 18L11 18L11 20L9 20L9 21L12 21L12 19L13 19L13 20L14 20L14 21L21 21L21 20L20 20L20 19L21 19L21 18L19 18L19 17L21 17L21 16L20 16L20 13L21 13L21 12L20 12L20 13L19 13L19 14L17 14L17 15L16 15L16 16L17 16L17 18L16 18L16 17L14 17L14 19L13 19L13 18L11 18L11 15L12 15L12 17L13 17L13 15L14 15L14 13L12 13L12 12L13 12L13 11L11 11L11 10L13 10L13 9L14 9L14 8L13 8L13 4L12 4L12 2L13 2L13 0ZM11 5L11 8L12 8L12 5ZM15 8L15 11L14 11L14 12L15 12L15 13L17 13L17 12L16 12L16 11L17 11L17 10L16 10L16 9L18 9L18 12L19 12L19 11L21 11L21 9L20 9L20 8ZM8 9L8 10L10 10L10 9ZM19 9L19 10L20 10L20 9ZM6 11L6 12L7 12L7 11ZM10 11L10 12L9 12L9 14L10 14L10 13L11 13L11 14L12 14L12 15L13 15L13 14L12 14L12 13L11 13L11 11ZM17 15L17 16L19 16L19 15ZM18 18L18 19L19 19L19 18ZM14 19L14 20L15 20L15 19ZM16 19L16 20L17 20L17 19ZM0 0L0 7L7 7L7 0ZM1 1L1 6L6 6L6 1ZM2 2L2 5L5 5L5 2ZM14 0L14 7L21 7L21 0ZM15 1L15 6L20 6L20 1ZM16 2L16 5L19 5L19 2ZM0 14L0 21L7 21L7 14ZM1 15L1 20L6 20L6 15ZM2 16L2 19L5 19L5 16Z" fill="#004b96"/></g></g></svg>
