<?xml version="1.0" encoding="UTF-8"?>
<svg xmlns="http://www.w3.org/2000/svg" version="1.1" width="400" height="400" viewBox="0 0 400 400"><rect x="0" y="0" width="400" height="400" fill="#f5f5f5"/><g transform="scale(14.815)"><g transform="translate(3,3)"><path fill-rule="evenodd" d="M8 0L8 1L10 1L10 0ZM12 0L12 1L11 1L11 2L9 2L9 3L8 3L8 4L9 4L9 5L12 5L12 7L13 7L13 3L11 3L11 2L13 2L13 0ZM10 3L10 4L11 4L11 3ZM8 6L8 7L9 7L9 8L8 8L8 11L7 11L7 10L6 10L6 11L7 11L7 12L6 12L6 13L8 13L8 14L9 14L9 15L8 15L8 17L9 17L9 15L11 15L11 14L12 14L12 16L10 16L10 18L8 18L8 19L9 19L9 21L10 21L10 20L11 20L11 19L12 19L12 17L13 17L13 18L14 18L14 19L13 19L13 20L12 20L12 21L13 21L13 20L14 20L14 19L15 19L15 17L16 17L16 16L18 16L18 18L20 18L20 19L21 19L21 18L20 18L20 17L21 17L21 16L20 16L20 17L19 17L19 16L18 16L18 15L19 15L19 14L20 14L20 12L21 12L21 11L20 11L20 12L19 12L19 10L21 10L21 8L20 8L20 9L18 9L18 8L17 8L17 9L18 9L18 10L16 10L16 11L17 11L17 12L16 12L16 13L15 13L15 10L14 10L14 8L11 8L11 6L10 6L10 7L9 7L9 6ZM2 8L2 9L0 9L0 11L2 11L2 13L3 13L3 11L4 11L4 13L5 13L5 10L4 10L4 9L7 9L7 8L4 8L4 9L3 9L3 8ZM9 8L9 9L10 9L10 10L9 10L9 11L8 11L8 12L9 12L9 11L10 11L10 10L11 10L11 12L10 12L10 13L9 13L9 14L11 14L11 12L12 12L12 11L13 11L13 12L14 12L14 11L13 11L13 10L12 10L12 9L11 9L11 8ZM13 13L13 15L14 15L14 16L15 16L15 15L14 15L14 13ZM16 13L16 15L18 15L18 14L19 14L19 13L18 13L18 14L17 14L17 13ZM16 18L16 19L17 19L17 18ZM18 19L18 21L19 21L19 19ZM16 20L16 21L17 21L17 20ZM20 20L20 21L21 21L21 20ZM0 0L0 7L7 7L7 0ZM1 1L1 6L6 6L6 1ZM2 2L2 5L5 5L5 2ZM14 0L14 7L21 7L21 0ZM15 1L15 6L20 6L20 1ZM16 2L16 5L19 5L19 2ZM0 14L0 21L7 21L7 14ZM1 15L1 20L6 20L6 15ZM2 16L2 19L5 19L5 16Z" fill="#004b96"/></g></g></svg>
