<?xml version="1.0" encoding="UTF-8"?>
<svg xmlns="http://www.w3.org/2000/svg" version="1.1" width="400" height="400" viewBox="0 0 400 400"><rect x="0" y="0" width="400" height="400" fill="#f5f5f5"/><g transform="scale(14.815)"><g transform="translate(3,3)"><path fill-rule="evenodd" d="M8 0L8 1L9 1L9 2L8 2L8 3L9 3L9 4L8 4L8 5L10 5L10 8L9 8L9 6L8 6L8 8L9 8L9 9L7 9L7 8L5 8L5 9L4 9L4 10L5 10L5 9L7 9L7 10L6 10L6 11L3 11L3 10L2 10L2 9L1 9L1 10L0 10L0 11L1 11L1 10L2 10L2 11L3 11L3 12L2 12L2 13L4 13L4 12L5 12L5 13L8 13L8 14L9 14L9 15L8 15L8 16L9 16L9 15L10 15L10 19L12 19L12 20L10 20L10 21L12 21L12 20L14 20L14 21L16 21L16 19L17 19L17 20L18 20L18 21L19 21L19 20L20 20L20 19L21 19L21 18L19 18L19 20L18 20L18 17L19 17L19 16L21 16L21 14L20 14L20 15L19 15L19 14L18 14L18 17L17 17L17 16L16 16L16 17L15 17L15 18L14 18L14 16L12 16L12 13L13 13L13 11L12 11L12 12L11 12L11 10L12 10L12 9L11 9L11 8L12 8L12 7L13 7L13 4L12 4L12 3L11 3L11 2L10 2L10 1L11 1L11 0L10 0L10 1L9 1L9 0ZM10 3L10 4L11 4L11 7L12 7L12 4L11 4L11 3ZM14 8L14 9L13 9L13 10L15 10L15 12L14 12L14 15L15 15L15 13L17 13L17 12L18 12L18 13L20 13L20 12L21 12L21 8L20 8L20 9L19 9L19 8L18 8L18 9L17 9L17 8L16 8L16 9L15 9L15 8ZM10 9L10 10L9 10L9 11L10 11L10 10L11 10L11 9ZM18 9L18 10L19 10L19 11L18 11L18 12L20 12L20 10L19 10L19 9ZM16 10L16 12L17 12L17 10ZM6 11L6 12L8 12L8 11ZM0 12L0 13L1 13L1 12ZM9 12L9 14L10 14L10 13L11 13L11 12ZM16 14L16 15L17 15L17 14ZM11 16L11 18L12 18L12 19L13 19L13 18L12 18L12 16ZM16 17L16 18L17 18L17 17ZM14 19L14 20L15 20L15 19ZM0 0L0 7L7 7L7 0ZM1 1L1 6L6 6L6 1ZM2 2L2 5L5 5L5 2ZM14 0L14 7L21 7L21 0ZM15 1L15 6L20 6L20 1ZM16 2L16 5L19 5L19 2ZM0 14L0 21L7 21L7 14ZM1 15L1 20L6 20L6 15ZM2 16L2 19L5 19L5 16Z" fill="#004b96"/></g></g></svg>
