<?xml version="1.0" encoding="UTF-8"?>
<svg xmlns="http://www.w3.org/2000/svg" version="1.1" width="400" height="400" viewBox="0 0 400 400"><rect x="0" y="0" width="400" height="400" fill="#f5f5f5"/><g transform="scale(14.815)"><g transform="translate(3,3)"><path fill-rule="evenodd" d="M9 0L9 1L8 1L8 2L9 2L9 5L8 5L8 8L4 8L4 9L2 9L2 11L0 11L0 12L2 12L2 11L3 11L3 10L4 10L4 11L5 11L5 9L7 9L7 10L6 10L6 11L7 11L7 12L5 12L5 13L8 13L8 17L10 17L10 19L9 19L9 20L10 20L10 21L11 21L11 19L12 19L12 20L14 20L14 21L15 21L15 19L16 19L16 20L17 20L17 19L18 19L18 21L21 21L21 20L20 20L20 19L19 19L19 18L21 18L21 16L20 16L20 15L21 15L21 13L19 13L19 12L20 12L20 11L21 11L21 9L20 9L20 8L19 8L19 10L16 10L16 8L14 8L14 9L15 9L15 10L14 10L14 11L13 11L13 10L10 10L10 8L13 8L13 6L12 6L12 7L11 7L11 6L10 6L10 8L9 8L9 5L10 5L10 4L11 4L11 5L12 5L12 4L11 4L11 3L13 3L13 1L11 1L11 2L9 2L9 1L10 1L10 0ZM8 8L8 9L9 9L9 8ZM0 9L0 10L1 10L1 9ZM7 10L7 11L9 11L9 12L8 12L8 13L9 13L9 14L11 14L11 15L10 15L10 16L11 16L11 15L12 15L12 12L13 12L13 13L15 13L15 15L13 15L13 16L12 16L12 18L13 18L13 19L15 19L15 18L13 18L13 16L14 16L14 17L15 17L15 15L16 15L16 16L17 16L17 17L16 17L16 18L17 18L17 17L18 17L18 18L19 18L19 17L18 17L18 16L19 16L19 15L20 15L20 14L19 14L19 13L18 13L18 12L16 12L16 11L15 11L15 12L13 12L13 11L12 11L12 12L11 12L11 11L10 11L10 10ZM9 12L9 13L11 13L11 12ZM17 13L17 16L18 16L18 13ZM0 0L0 7L7 7L7 0ZM1 1L1 6L6 6L6 1ZM2 2L2 5L5 5L5 2ZM14 0L14 7L21 7L21 0ZM15 1L15 6L20 6L20 1ZM16 2L16 5L19 5L19 2ZM0 14L0 21L7 21L7 14ZM1 15L1 20L6 20L6 15ZM2 16L2 19L5 19L5 16Z" fill="#282828"/></g></g></svg>
