<?xml version="1.0" encoding="UTF-8"?>
<svg xmlns="http://www.w3.org/2000/svg" version="1.1" width="400" height="400" viewBox="0 0 400 400"><rect x="0" y="0" width="400" height="400" fill="#f5f5f5"/><g transform="scale(14.815)"><g transform="translate(3,3)"><path fill-rule="evenodd" d="M9 0L9 1L11 1L11 2L8 2L8 4L9 4L9 6L8 6L8 7L9 7L9 6L10 6L10 7L11 7L11 9L8 9L8 8L6 8L6 9L5 9L5 8L3 8L3 10L2 10L2 9L0 9L0 10L1 10L1 12L0 12L0 13L2 13L2 12L4 12L4 13L8 13L8 15L10 15L10 16L8 16L8 18L9 18L9 21L10 21L10 20L11 20L11 21L12 21L12 19L13 19L13 20L14 20L14 19L15 19L15 21L17 21L17 20L18 20L18 21L20 21L20 20L21 20L21 18L19 18L19 19L20 19L20 20L18 20L18 18L17 18L17 17L19 17L19 16L20 16L20 17L21 17L21 14L20 14L20 13L19 13L19 12L20 12L20 11L19 11L19 8L17 8L17 9L12 9L12 8L13 8L13 4L12 4L12 3L11 3L11 2L12 2L12 0ZM9 3L9 4L11 4L11 5L10 5L10 6L11 6L11 7L12 7L12 6L11 6L11 5L12 5L12 4L11 4L11 3ZM4 9L4 11L5 11L5 12L8 12L8 11L6 11L6 10L7 10L7 9L6 9L6 10L5 10L5 9ZM10 10L10 11L9 11L9 14L10 14L10 11L11 11L11 10ZM12 10L12 11L13 11L13 12L14 12L14 13L12 13L12 12L11 12L11 13L12 13L12 14L11 14L11 15L12 15L12 16L14 16L14 18L13 18L13 19L14 19L14 18L15 18L15 17L16 17L16 16L18 16L18 13L15 13L15 10L14 10L14 11L13 11L13 10ZM16 10L16 11L18 11L18 12L19 12L19 11L18 11L18 10ZM14 13L14 14L12 14L12 15L14 15L14 14L15 14L15 13ZM10 16L10 17L9 17L9 18L10 18L10 19L11 19L11 18L12 18L12 17L11 17L11 16ZM16 19L16 20L17 20L17 19ZM0 0L0 7L7 7L7 0ZM1 1L1 6L6 6L6 1ZM2 2L2 5L5 5L5 2ZM14 0L14 7L21 7L21 0ZM15 1L15 6L20 6L20 1ZM16 2L16 5L19 5L19 2ZM0 14L0 21L7 21L7 14ZM1 15L1 20L6 20L6 15ZM2 16L2 19L5 19L5 16Z" fill="#282828"/></g></g></svg>
