<?xml version="1.0" encoding="UTF-8"?>
<svg xmlns="http://www.w3.org/2000/svg" version="1.1" width="400" height="400" viewBox="0 0 400 400"><rect x="0" y="0" width="400" height="400" fill="#f5f5f5"/><g transform="scale(14.815)"><g transform="translate(3,3)"><path fill-rule="evenodd" d="M9 0L9 1L8 1L8 7L9 7L9 6L10 6L10 7L11 7L11 8L13 8L13 10L14 10L14 11L15 11L15 13L20 13L20 14L17 14L17 15L16 15L16 16L17 16L17 18L16 18L16 17L13 17L13 16L14 16L14 15L15 15L15 14L14 14L14 15L13 15L13 16L12 16L12 17L13 17L13 18L14 18L14 19L13 19L13 20L12 20L12 21L14 21L14 19L15 19L15 21L21 21L21 20L20 20L20 19L21 19L21 18L19 18L19 17L21 17L21 16L20 16L20 14L21 14L21 13L20 13L20 12L16 12L16 11L18 11L18 10L19 10L19 9L20 9L20 8L15 8L15 10L14 10L14 8L13 8L13 6L12 6L12 7L11 7L11 5L13 5L13 3L12 3L12 2L11 2L11 3L9 3L9 1L10 1L10 0ZM11 0L11 1L13 1L13 0ZM9 4L9 5L10 5L10 4ZM2 8L2 9L3 9L3 11L0 11L0 12L2 12L2 13L3 13L3 12L4 12L4 13L5 13L5 10L6 10L6 11L7 11L7 10L6 10L6 9L8 9L8 10L10 10L10 11L9 11L9 12L10 12L10 13L8 13L8 16L9 16L9 18L8 18L8 19L9 19L9 21L10 21L10 19L11 19L11 18L10 18L10 17L11 17L11 15L10 15L10 13L11 13L11 14L13 14L13 13L14 13L14 12L10 12L10 11L11 11L11 10L12 10L12 9L10 9L10 8L5 8L5 10L4 10L4 9L3 9L3 8ZM0 9L0 10L1 10L1 9ZM16 9L16 10L18 10L18 9ZM20 10L20 11L21 11L21 10ZM6 12L6 13L7 13L7 12ZM17 15L17 16L19 16L19 15ZM18 18L18 19L19 19L19 18ZM16 19L16 20L17 20L17 19ZM0 0L0 7L7 7L7 0ZM1 1L1 6L6 6L6 1ZM2 2L2 5L5 5L5 2ZM14 0L14 7L21 7L21 0ZM15 1L15 6L20 6L20 1ZM16 2L16 5L19 5L19 2ZM0 14L0 21L7 21L7 14ZM1 15L1 20L6 20L6 15ZM2 16L2 19L5 19L5 16Z" fill="#282828"/></g></g></svg>
