<?xml version="1.0" encoding="UTF-8"?>
<svg xmlns="http://www.w3.org/2000/svg" version="1.1" width="400" height="400" viewBox="0 0 400 400"><rect x="0" y="0" width="400" height="400" fill="#f5f5f5"/><g transform="scale(14.815)"><g transform="translate(3,3)"><path fill-rule="evenodd" d="M9 0L9 1L10 1L10 3L9 3L9 4L8 4L8 5L9 5L9 6L8 6L8 8L6 8L6 9L4 9L4 8L2 8L2 10L1 10L1 11L0 11L0 13L1 13L1 12L2 12L2 13L4 13L4 12L5 12L5 10L6 10L6 11L7 11L7 12L6 12L6 13L8 13L8 15L9 15L9 14L10 14L10 15L11 15L11 16L10 16L10 17L8 17L8 19L9 19L9 20L11 20L11 21L12 21L12 20L13 20L13 21L15 21L15 20L16 20L16 21L17 21L17 20L16 20L16 18L20 18L20 17L21 17L21 16L20 16L20 15L21 15L21 10L20 10L20 9L17 9L17 8L16 8L16 9L17 9L17 10L18 10L18 11L19 11L19 12L17 12L17 11L13 11L13 12L12 12L12 13L11 13L11 14L10 14L10 13L8 13L8 12L9 12L9 10L11 10L11 11L12 11L12 10L14 10L14 9L15 9L15 8L13 8L13 6L12 6L12 7L11 7L11 6L10 6L10 5L11 5L11 4L12 4L12 5L13 5L13 3L12 3L12 2L13 2L13 0L12 0L12 1L11 1L11 0ZM10 3L10 4L11 4L11 3ZM9 6L9 8L10 8L10 9L11 9L11 10L12 10L12 9L11 9L11 7L10 7L10 6ZM6 9L6 10L7 10L7 11L8 11L8 10L7 10L7 9ZM3 10L3 11L2 11L2 12L4 12L4 10ZM19 10L19 11L20 11L20 10ZM14 12L14 14L13 14L13 16L12 16L12 17L11 17L11 20L12 20L12 19L14 19L14 18L15 18L15 16L14 16L14 15L15 15L15 14L16 14L16 15L17 15L17 16L18 16L18 17L20 17L20 16L18 16L18 15L19 15L19 14L18 14L18 13L17 13L17 12L16 12L16 13L15 13L15 12ZM11 14L11 15L12 15L12 14ZM13 16L13 17L14 17L14 16ZM9 18L9 19L10 19L10 18ZM18 19L18 20L19 20L19 21L20 21L20 20L21 20L21 19ZM0 0L0 7L7 7L7 0ZM1 1L1 6L6 6L6 1ZM2 2L2 5L5 5L5 2ZM14 0L14 7L21 7L21 0ZM15 1L15 6L20 6L20 1ZM16 2L16 5L19 5L19 2ZM0 14L0 21L7 21L7 14ZM1 15L1 20L6 20L6 15ZM2 16L2 19L5 19L5 16Z" fill="#282828"/></g></g></svg>
