<?xml version="1.0" encoding="UTF-8"?>
<svg xmlns="http://www.w3.org/2000/svg" version="1.1" width="400" height="400" viewBox="0 0 400 400"><rect x="0" y="0" width="400" height="400" fill="#f5f5f5"/><g transform="scale(7.843)"><g transform="translate(15,15)"><path fill-rule="evenodd" d="M8 0L8 1L9 1L9 2L10 2L10 3L8 3L8 4L10 4L10 5L9 5L9 6L8 6L8 7L9 7L9 8L8 8L8 9L7 9L7 8L4 8L4 10L3 10L3 8L2 8L2 13L3 13L3 12L6 12L6 13L8 13L8 14L9 14L9 15L8 15L8 17L9 17L9 18L8 18L8 19L9 19L9 21L10 21L10 17L11 17L11 21L15 21L15 17L16 17L16 16L18 16L18 18L20 18L20 19L21 19L21 18L20 18L20 17L21 17L21 16L20 16L20 17L19 17L19 16L18 16L18 15L19 15L19 14L18 14L18 12L19 12L19 13L20 13L20 14L21 14L21 13L20 13L20 11L19 11L19 10L20 10L20 9L21 9L21 8L20 8L20 9L19 9L19 10L18 10L18 8L17 8L17 10L16 10L16 11L17 11L17 10L18 10L18 12L16 12L16 13L15 13L15 14L14 14L14 15L13 15L13 12L14 12L14 11L15 11L15 10L14 10L14 8L13 8L13 6L12 6L12 4L10 4L10 3L11 3L11 2L12 2L12 1L13 1L13 0L11 0L11 2L10 2L10 1L9 1L9 0ZM10 5L10 6L9 6L9 7L10 7L10 6L11 6L11 7L12 7L12 6L11 6L11 5ZM9 8L9 9L8 9L8 10L9 10L9 13L10 13L10 10L11 10L11 11L13 11L13 8L11 8L11 9L10 9L10 8ZM0 9L0 13L1 13L1 9ZM5 9L5 10L7 10L7 9ZM6 11L6 12L8 12L8 11ZM11 12L11 14L10 14L10 15L9 15L9 16L11 16L11 15L12 15L12 18L14 18L14 17L15 17L15 16L14 16L14 17L13 17L13 15L12 15L12 12ZM16 13L16 15L18 15L18 14L17 14L17 13ZM16 18L16 19L17 19L17 18ZM13 19L13 20L14 20L14 19ZM18 19L18 21L19 21L19 19ZM16 20L16 21L17 21L17 20ZM20 20L20 21L21 21L21 20ZM0 0L0 7L7 7L7 0ZM1 1L1 6L6 6L6 1ZM2 2L2 5L5 5L5 2ZM14 0L14 7L21 7L21 0ZM15 1L15 6L20 6L20 1ZM16 2L16 5L19 5L19 2ZM0 14L0 21L7 21L7 14ZM1 15L1 20L6 20L6 15ZM2 16L2 19L5 19L5 16Z" fill="#282828"/></g></g></svg>
